# File produced by Open Asset Import Library (http://www.assimp.sf.net)
# (assimp v4.1.216079013)

mtllib cubeGenNormals.mtl

# 8 vertex positions
v  0.02254099957644939 0 0
v  1.022541046142578 1 0
v  1.022541046142578 0 0
v  0.02254099957644939 1 0
v  0.02254099957644939 1 1
v  0.02254099957644939 0 1
v  1.022541046142578 1 1
v  1.022541046142578 0 1

# 0 UV coordinates

# 6 vertex normals
vn 0 0 -1
vn -1 0 0
vn 0 1 0
vn 1 0 0
vn 0 -1 0
vn 0 0 1

# Mesh 'cube Mesh' with 12 faces
g cube Mesh
usemtl DefaultMaterial
f  1//1 2//1 3//1
f  1//1 4//1 2//1
f  1//2 5//2 4//2
f  1//2 6//2 5//2
f  4//3 7//3 2//3
f  4//3 5//3 7//3
f  3//4 2//4 7//4
f  3//4 7//4 8//4
f  1//5 3//5 8//5
f  1//5 8//5 6//5
f  6//6 8//6 7//6
f  6//6 7//6 5//6

